# xmcd
#
# Track frame offsets: 
#        150
#        17707
#        34203
#        56159
#        81065
#        105939
#        128829
#        150204
#        170945
#        191951
#
# Disc length: 2790 seconds
#
# Revision: 0
# Processed by: cddbd v1.5.2PL0 Copyright (c) Steve Scherf et al.
# Submitted via: ExactAudioCopyFreeDBPlugin 1.0
#
DISCID=7d0ae40a
DTITLE=森 大輔 - Beauty is yours
DYEAR=2013
DGENRE=R&B
TTITLE0=Beauty is yours
TTITLE1=on and on and on
TTITLE2=go your way, go my way
TTITLE3=Lean On Me
TTITLE4=日食
TTITLE5=カケラ
TTITLE6=100日の恋
TTITLE7=君がいる
TTITLE8=Distance
TTITLE9=I've Been Thinking Of You
EXTD=
EXTT0=
EXTT1=
EXTT2=
EXTT3=
EXTT4=
EXTT5=
EXTT6=
EXTT7=
EXTT8=
EXTT9=
PLAYORDER=
